<svg width="50" height="50" viewBox="0 0 50 50" fill="none" xmlns="http://www.w3.org/2000/svg">
<path d="M4.79167 6C3.52084 6 2.30206 6.5052 1.40345 7.40381C0.504835 8.30242 0 9.52084 0 10.7917C0 12.0625 0.504835 13.2815 1.40345 14.1801C2.30206 15.0787 3.52084 15.5833 4.79167 15.5833C6.0625 15.5833 7.28128 15.0787 8.17989 14.1801C9.0785 13.2815 9.58333 12.0625 9.58333 10.7917C9.58333 9.52084 9.0785 8.30242 8.17989 7.40381C7.28128 6.5052 6.0625 6 4.79167 6ZM14.375 8.39583V13.1875H50V8.39583H14.375ZM4.79167 20.375C3.52084 20.375 2.30206 20.8802 1.40345 21.7788C0.504835 22.6774 0 23.8958 0 25.1667C0 26.4375 0.504835 27.6565 1.40345 28.5551C2.30206 29.4537 3.52084 29.9583 4.79167 29.9583C6.0625 29.9583 7.28128 29.4537 8.17989 28.5551C9.0785 27.6565 9.58333 26.4375 9.58333 25.1667C9.58333 23.8958 9.0785 22.6774 8.17989 21.7788C7.28128 20.8802 6.0625 20.375 4.79167 20.375ZM14.375 22.7708V27.5625H50V22.7708H14.375ZM4.79167 34.75C3.52084 34.75 2.30206 35.2552 1.40345 36.1538C0.504835 37.0524 0 38.2708 0 39.5417C0 40.8125 0.504835 42.0315 1.40345 42.9301C2.30206 43.8287 3.52084 44.3333 4.79167 44.3333C6.0625 44.3333 7.28128 43.8287 8.17989 42.9301C9.0785 42.0315 9.58333 40.8125 9.58333 39.5417C9.58333 38.2708 9.0785 37.0524 8.17989 36.1538C7.28128 35.2552 6.0625 34.75 4.79167 34.75ZM14.375 37.1458V41.9375H50V37.1458H14.375Z" fill="white"/>
</svg>
