<svg width="50" height="50" viewBox="0 0 50 50" fill="none" xmlns="http://www.w3.org/2000/svg">
<path d="M25.5907 44.6361C27.064 44.6361 28.2585 43.4466 28.2585 41.9792C28.2585 40.5118 27.064 39.3223 25.5907 39.3223C24.1173 39.3223 22.9229 40.5118 22.9229 41.9792C22.9229 43.4466 24.1173 44.6361 25.5907 44.6361Z" fill="white"/>
<path d="M13.3611 34.7178C11.8871 34.7178 10.6934 35.9059 10.6934 37.3748C10.6934 38.843 11.8864 40.0316 13.3611 40.0316C14.8336 40.0316 16.029 38.8436 16.029 37.3748C16.029 35.9064 14.8357 34.7178 13.3611 34.7178Z" fill="white"/>
<path d="M37.5087 33.9658C36.0346 33.9658 34.8408 35.1539 34.8408 36.6226C34.8408 38.0909 36.0341 39.2796 37.5087 39.2796C38.9827 39.2796 40.1764 38.0915 40.1764 36.6226C40.1764 35.1544 38.9833 33.9658 37.5087 33.9658Z" fill="white"/>
<path d="M7.98323 28.1629C9.45662 28.1629 10.651 26.9734 10.651 25.506C10.651 24.0387 9.45662 22.8491 7.98323 22.8491C6.50985 22.8491 5.31543 24.0387 5.31543 25.506C5.31543 26.9734 6.50985 28.1629 7.98323 28.1629Z" fill="white"/>
<path d="M12.6082 15.9839C14.0824 15.9839 15.276 14.7958 15.276 13.3269C15.276 11.8492 14.0741 10.6714 12.6082 10.6714C11.1393 10.6714 9.94043 11.8525 9.94043 13.3269C9.94043 14.7951 11.1334 15.9839 12.6082 15.9839Z" fill="white"/>
<path d="M18.276 26.727C18.0269 26.8851 18.0884 27.2601 18.3748 27.3156C22.911 28.1947 26.916 27.4913 30.278 25.2252C32.7251 23.576 32.6148 19.9512 30.0768 18.4485C27.9399 17.2069 25.4374 18.0965 24.4219 20.0577C22.951 22.899 20.823 25.1111 18.276 26.727Z" fill="white"/>
<path d="M40.6635 26.527C38.155 26.7036 35.5877 26.3355 33.1254 25.3465C32.6926 25.9811 32.1364 26.5388 31.4745 26.9849C27.4613 29.6897 22.8584 30.3488 17.9676 29.4015C15.7923 28.9801 15.2593 26.1204 17.1296 24.9339C19.3741 23.5098 21.2358 21.5739 22.5255 19.0829C22.9394 18.2835 23.503 17.615 24.1629 17.0908C23.0205 14.8012 22.39 12.2322 22.39 9.52977C22.3956 7.02039 21.0831 4.79063 18.8789 3.56302C14.6307 1.19707 10.7111 3.90382 7.21789 7.42248C-2.463 17.1793 -2.39723 32.9929 7.36456 42.6733C19.251 54.4608 39.4364 51.5191 47.2949 36.5334C49.7899 31.7752 46.0752 26.1534 40.6635 26.527ZM12.6076 8.54671C15.2468 8.54671 17.4096 10.6675 17.4096 13.3268C17.4096 15.9698 15.262 18.1093 12.6076 18.1093C9.95362 18.1093 7.80555 15.9704 7.80555 13.3268C7.80555 10.6669 9.96875 8.54671 12.6076 8.54671ZM3.18197 25.5063C3.18197 22.8693 5.33613 20.7239 7.98398 20.7239C10.6318 20.7239 12.786 22.8693 12.786 25.5063C12.786 28.1433 10.6318 30.2887 7.98398 30.2887C5.33613 30.2887 3.18197 28.1433 3.18197 25.5063ZM13.362 42.1567C10.7079 42.1567 8.56004 40.0177 8.56004 37.3744C8.56004 34.7314 10.7075 32.5919 13.362 32.5919C16.0158 32.5919 18.1641 34.7308 18.1641 37.3744C18.1642 40.0133 16.0164 42.1567 13.362 42.1567ZM25.5914 46.7614C22.9435 46.7614 20.7894 44.616 20.7894 41.979C20.7894 39.342 22.9435 37.1966 25.5914 37.1966C28.2392 37.1966 30.3934 39.342 30.3934 41.979C30.3934 44.616 28.2392 46.7614 25.5914 46.7614ZM37.5081 41.4053C34.8543 41.4053 32.706 39.2664 32.706 36.6228C32.706 33.9798 34.8537 31.8405 37.5081 31.8405C40.1622 31.8405 42.31 33.9794 42.31 36.6228C42.31 39.2657 40.1626 41.4053 37.5081 41.4053Z" fill="white"/>
<path d="M49.3829 0.616843C48.5575 -0.205451 47.2208 -0.205745 46.395 0.616745L30.6172 16.3302C31.9955 16.9738 33.0129 18.025 33.6089 19.3024L49.3829 3.59263C50.2068 2.7722 50.2068 1.43718 49.3829 0.616843Z" fill="white"/>
</svg>
