<svg width="30" height="30" viewBox="0 0 30 30" fill="none" xmlns="http://www.w3.org/2000/svg">
<path d="M25.0776 7.39576C25.0776 7.39576 13.5593 2.0544 13.1636 1.9594C12.7281 1.853 12.2797 1.7998 11.8287 1.7998C8.09134 1.7998 4.47469 5.41227 3.22847 10.3885C2.7184 12.4265 2.65801 14.4783 3.03446 16.3288C2.56038 16.995 2.16339 17.7803 1.88329 18.7163C1.79336 18.9924 -0.286732 25.5064 1.04175 27.8397C1.29614 28.2868 1.65845 28.5705 2.11839 28.6807C2.46144 28.7631 2.76594 28.7998 3.03575 28.7998C4.46701 28.7998 4.94495 27.7789 5.22245 27.1861C5.28668 27.0494 5.37148 26.8695 5.42801 26.8011C6.04086 26.9518 7.47855 27.2089 8.43698 26.6149C8.88922 26.335 9.17573 25.9094 9.28878 25.3509C9.40698 24.7682 9.40184 24.1134 9.39542 23.4814C9.39285 23.1951 9.39156 22.9127 9.39927 22.6391C12.6652 23.1951 20.7235 24.5592 20.7235 24.5592C21.0203 24.5972 21.3145 24.6162 21.6036 24.6162C25.0752 24.6162 27.9479 21.9044 29.0579 17.4727C30.3016 12.5039 27.9621 8.83575 25.0776 7.39576ZM5.53594 10.8309C6.55607 7.02741 9.2335 4.15845 11.7621 4.15845C12.0422 4.15845 12.3197 4.19392 12.587 4.26358C15.3133 4.97414 16.5865 9.07674 15.4263 13.4084C15.4212 13.4286 15.4148 13.4464 15.4084 13.4666C14.4499 13.2298 8.93055 12.0215 5.11195 14.3811C5.07341 13.264 5.20702 12.0568 5.53594 10.8309ZM16.7033 13.6655C15.6472 17.8882 12.6304 21.0979 9.61898 21.2601C9.70378 21.0333 9.82198 20.8269 9.98259 20.6483C12.5753 20.1619 15.051 17.3413 16.0608 13.5745C17.3147 8.89687 15.8308 4.43844 12.7536 3.6369C12.4324 3.55331 12.0984 3.51024 11.7618 3.51024C8.8967 3.51024 6.01118 6.51966 4.89849 10.6651C4.51304 12.1015 4.38714 13.5175 4.48479 14.8132C4.37687 14.8956 4.27408 14.9842 4.17002 15.0729C4.02355 13.6796 4.13147 12.1876 4.50405 10.6981C5.58842 6.36389 8.73609 3.0961 11.8275 3.0961C12.1718 3.0961 12.5161 3.13664 12.8476 3.2177C14.4318 3.60274 15.7114 4.87062 16.4514 6.78703C17.2249 8.787 17.3136 11.2284 16.7033 13.6655Z" fill="white"/>
</svg>
