<svg width="50" height="50" viewBox="0 0 50 50" fill="none" xmlns="http://www.w3.org/2000/svg">
<path d="M30.7677 49.9999C30.1752 50.0049 29.5932 49.844 29.0872 49.5355C28.5812 49.2269 28.1715 48.783 27.9045 48.2539C27.6228 47.7282 27.2039 47.2888 26.6923 46.9825C26.1808 46.6762 25.5957 46.5144 24.9994 46.5144C24.4032 46.5144 23.8181 46.6762 23.3065 46.9825C22.7949 47.2888 22.3761 47.7282 22.0944 48.2539C21.8274 48.783 21.4176 49.2269 20.9117 49.5355C20.4057 49.844 19.8237 50.0049 19.2311 49.9999C18.7754 50.0012 18.3239 49.9114 17.9034 49.7358C17.4828 49.5602 17.1016 49.3025 16.782 48.9775C16.4786 48.6619 16.2433 48.2873 16.0906 47.877C15.9379 47.4667 15.871 47.0295 15.8943 46.5922C15.9113 46.1528 15.839 45.7144 15.6818 45.3038C15.5246 44.8931 15.2857 44.5187 14.9796 44.2031C14.6696 43.883 14.2988 43.6279 13.889 43.4531C13.4791 43.2783 13.0386 43.1872 12.5931 43.185C11.9807 43.1871 11.3811 43.3603 10.8619 43.685C10.3394 44.0195 9.73284 44.1988 9.11256 44.2024C8.5185 44.1905 7.93796 44.0227 7.42926 43.7155C6.92056 43.4084 6.50149 42.973 6.21422 42.4527C5.9276 41.9445 5.78595 41.3674 5.80468 40.7842C5.82341 40.201 6.00189 39.6343 6.32053 39.1456C6.63001 38.6468 6.80072 38.0742 6.81503 37.4873C6.82933 36.9004 6.68663 36.3204 6.40183 35.8071C6.11702 35.2937 5.70035 34.8658 5.19487 34.5674C4.6894 34.2691 4.11344 34.1111 3.52652 34.1099H3.41532C3.37472 34.1099 3.33483 34.1099 3.29422 34.1099C2.52794 34.121 1.7829 33.8577 1.19375 33.3675C0.659585 32.9091 0.281755 32.2954 0.112936 31.612C-0.0810693 30.8997 -0.0238831 30.1424 0.274921 29.4673C0.573726 28.7923 1.09589 28.2407 1.75353 27.9056C2.27901 27.6238 2.71818 27.2047 3.02439 26.693C3.33061 26.1813 3.49235 25.5962 3.49235 24.9998C3.49235 24.4034 3.33061 23.8181 3.02439 23.3064C2.71818 22.7947 2.27901 22.3755 1.75353 22.0938C1.09589 21.7586 0.573726 21.2071 0.274921 20.5321C-0.0238831 19.857 -0.0810693 19.0997 0.112936 18.3874C0.281886 17.7039 0.659932 17.0901 1.19436 16.6319C1.78332 16.1418 2.52815 15.8784 3.29422 15.8895H3.41532H3.52652C4.11344 15.8883 4.6894 15.7303 5.19487 15.432C5.70035 15.1336 6.11702 14.7057 6.40183 14.1923C6.68663 13.679 6.82933 13.099 6.81503 12.5121C6.80072 11.9252 6.63001 11.3526 6.32053 10.8538C6.00201 10.3651 5.82371 9.79852 5.80498 9.21549C5.78626 8.63246 5.92772 8.05553 6.21422 7.54744C6.50154 7.02723 6.92057 6.59159 7.42926 6.28447C7.93794 5.97735 8.51851 5.80952 9.11256 5.79762C9.73291 5.80136 10.3395 5.9809 10.8619 6.31559C11.3811 6.64039 11.9807 6.81358 12.5931 6.81556C13.0386 6.81345 13.4791 6.72232 13.889 6.5475C14.2988 6.37268 14.6696 6.11777 14.9796 5.79762C15.2855 5.48177 15.5244 5.1071 15.6816 4.69637C15.8388 4.28564 15.9111 3.84739 15.8943 3.40791C15.8711 2.9708 15.938 2.53349 16.0907 2.12328C16.2434 1.71307 16.4787 1.3386 16.782 1.02309C17.1016 0.697952 17.483 0.440039 17.9037 0.264363C18.3243 0.0886869 18.7759 -0.00118759 19.2317 0.000111707C19.8243 -0.00485661 20.4063 0.155994 20.9123 0.464535C21.4183 0.773075 21.828 1.21698 22.095 1.74612C22.3767 2.27175 22.7955 2.71119 23.3071 3.01749C23.8187 3.32378 24.4038 3.48557 25 3.48557C25.5963 3.48557 26.1814 3.32378 26.693 3.01749C27.2045 2.71119 27.6234 2.27175 27.9051 1.74612C28.1721 1.21698 28.5818 0.773075 29.0878 0.464535C29.5938 0.155994 30.1758 -0.00485661 30.7684 0.000111707C31.2242 -0.00115255 31.6758 0.0886889 32.0964 0.264363C32.5171 0.440037 32.8985 0.69798 33.2181 1.02309C33.5215 1.3387 33.7568 1.71326 33.9095 2.12358C34.0622 2.5339 34.129 2.97131 34.1058 3.40853C34.089 3.84791 34.1614 4.28605 34.3186 4.69667C34.4758 5.1073 34.7146 5.48189 35.0205 5.79762C35.3306 6.11781 35.7015 6.37283 36.1114 6.54765C36.5214 6.72247 36.9621 6.8135 37.4078 6.81556C38.0199 6.81347 38.6193 6.64028 39.1383 6.31559C39.6607 5.9809 40.2672 5.80136 40.8875 5.79762C41.4816 5.80952 42.0622 5.97735 42.5708 6.28447C43.0795 6.59159 43.4986 7.02723 43.7859 7.54744C44.0723 8.05558 44.2138 8.63246 44.195 9.21549C44.1761 9.79852 43.9976 10.3652 43.679 10.8538C43.3697 11.3527 43.1991 11.9252 43.1849 12.5121C43.1707 13.099 43.3136 13.679 43.5984 14.1923C43.8833 14.7056 44.2998 15.1334 44.8052 15.4318C45.3107 15.7302 45.8867 15.8882 46.4736 15.8895H46.5848H46.7059C47.4721 15.8784 48.2172 16.1417 48.8063 16.6319C49.3404 17.0901 49.7182 17.7036 49.8872 18.3868C50.0811 19.0992 50.0238 19.8565 49.7249 20.5316C49.4259 21.2067 48.9037 21.7581 48.246 22.0932C47.7205 22.3749 47.2813 22.7941 46.9751 23.3058C46.6689 23.8175 46.5071 24.4026 46.5071 24.999C46.5071 25.5954 46.6689 26.1807 46.9751 26.6924C47.2813 27.2041 47.7205 27.6232 48.246 27.905C48.9036 28.2401 49.4258 28.7917 49.7246 29.4667C50.0234 30.1418 50.0806 30.8991 49.8865 31.6114C49.7177 32.2948 49.3398 32.9085 48.8057 33.3669C48.2166 33.8572 47.4716 34.1207 46.7053 34.1099C46.6647 34.1099 46.6248 34.1099 46.5842 34.1099H46.473C45.886 34.111 45.3099 34.2688 44.8043 34.5671C44.2987 34.8654 43.8821 35.2934 43.5972 35.8068C43.3123 36.3201 43.1696 36.9002 43.1839 37.4872C43.1981 38.0741 43.3688 38.6467 43.6783 39.1456C43.997 39.6342 44.1754 40.2009 44.1942 40.7839C44.213 41.3669 44.0717 41.944 43.7853 42.4521C43.4978 42.9724 43.0787 43.4078 42.5699 43.7149C42.0611 44.022 41.4805 44.1899 40.8863 44.2018C40.266 44.1983 39.6594 44.0189 39.137 43.6844C38.6179 43.3598 38.0185 43.1866 37.4064 43.1844C36.9607 43.1865 36.5201 43.2777 36.1102 43.4525C35.7003 43.6273 35.3294 43.8822 35.0193 44.2024C34.7134 44.5181 34.4746 44.8927 34.3174 45.3033C34.1602 45.7139 34.0878 46.1521 34.1046 46.5915C34.1279 47.0287 34.061 47.4661 33.9083 47.8764C33.7556 48.2867 33.5203 48.6613 33.2169 48.9769C32.8974 49.302 32.5161 49.56 32.0955 49.7356C31.6749 49.9113 31.2235 50.0011 30.7677 49.9999ZM24.9994 17.5037C23.5167 17.5037 22.0672 17.9436 20.8343 18.7676C19.6015 19.5916 18.6404 20.7627 18.073 22.133C17.5055 23.5033 17.3571 25.0111 17.6464 26.4658C17.9356 27.9205 18.6497 29.2568 19.6982 30.3055C20.7467 31.3543 22.0826 32.0686 23.5368 32.3579C24.9911 32.6473 26.4986 32.4988 27.8685 31.9312C29.2384 31.3636 30.4092 30.4023 31.233 29.1691C32.0567 27.9358 32.4965 26.486 32.4965 25.0028C32.4944 23.0146 31.7038 21.1084 30.2983 19.7025C28.8928 18.2966 26.9871 17.5059 24.9994 17.5037Z" fill="white"/>
</svg>
