<svg width="22" height="22" viewBox="0 0 22 22" fill="none" xmlns="http://www.w3.org/2000/svg">
<path d="M20.25 9.20274L2.17 0.162736C1.7 -0.0772636 1.16 -0.0472636 0.71 0.222736C0.27 0.502736 0 0.982736 0 1.50274V7.25274C0 7.95274 0.48 8.55274 1.16 8.71274L8.96 10.5427L1.16 12.3727C0.48 12.5327 0 13.1327 0 13.8327V19.5827C0 20.1027 0.27 20.5827 0.71 20.8627C0.95 21.0127 1.23 21.0827 1.5 21.0827C1.73 21.0827 1.96 21.0327 2.17 20.9227L20.25 11.8827C20.76 11.6327 21.08 11.1127 21.08 10.5427C21.08 9.97274 20.76 9.45274 20.25 9.20274Z" fill="black"/>
</svg>
